<svg xmlns="http://www.w3.org/2000/svg" width="1200" height="630" viewBox="0 0 1200 630" role="img" aria-labelledby="title desc">
  <title id="title">Nexus Thermal 都市極簡管理系統</title>
  <desc id="desc">Nexus Thermal 都市極簡管理系統預覽圖。</desc>
  <rect width="1200" height="630" fill="#f4f5f7"/>
  <rect x="96" y="82" width="1008" height="466" rx="14" fill="#ffffff" stroke="#d9dee7"/>
  <rect x="96" y="82" width="240" height="466" rx="14" fill="#111827"/>
  <rect x="136" y="122" width="48" height="48" rx="8" fill="#ffffff"/>
  <text x="160" y="154" text-anchor="middle" fill="#111827" font-family="Arial, sans-serif" font-size="18" font-weight="900">NT</text>
  <text x="206" y="142" fill="#ffffff" font-family="Arial, Microsoft JhengHei, sans-serif" font-size="24" font-weight="900">Nexus Thermal</text>
  <text x="206" y="166" fill="#aeb7c7" font-family="Arial, Microsoft JhengHei, sans-serif" font-size="16" font-weight="700">Urban Console</text>
  <rect x="136" y="220" width="160" height="28" rx="6" fill="#273142"/>
  <rect x="136" y="262" width="136" height="28" rx="6" fill="#1b2433"/>
  <rect x="136" y="304" width="148" height="28" rx="6" fill="#1b2433"/>
  <text x="388" y="176" fill="#111827" font-family="Arial, Microsoft JhengHei, sans-serif" font-size="48" font-weight="900">都市極簡管理系統</text>
  <text x="388" y="218" fill="#667085" font-family="Arial, Microsoft JhengHei, sans-serif" font-size="24" font-weight="700">會員系統 / 即時模組 / 任務發布 / 管理中心</text>
  <g fill="#ffffff" stroke="#d9dee7">
    <rect x="388" y="282" width="200" height="106" rx="10"/>
    <rect x="612" y="282" width="200" height="106" rx="10"/>
    <rect x="836" y="282" width="200" height="106" rx="10"/>
    <rect x="388" y="412" width="648" height="66" rx="10"/>
  </g>
  <g fill="#667085" font-family="Arial, Microsoft JhengHei, sans-serif" font-size="18" font-weight="800">
    <text x="416" y="326">Module Status</text>
    <text x="640" y="326">Tasks</text>
    <text x="864" y="326">Admin</text>
    <text x="416" y="452">Nexus Thermal Operation Panel</text>
  </g>
  <g fill="#111827" font-family="Arial, sans-serif" font-size="30" font-weight="900">
    <text x="416" y="362">Online</text>
    <text x="640" y="362">Live</text>
    <text x="864" y="362">Secure</text>
  </g>
</svg>
