<svg xmlns="http://www.w3.org/2000/svg" width="1200" height="630" viewBox="0 0 1200 630" role="img" aria-labelledby="title desc">
  <title id="title">ATG 熱能柔光監控台</title>
  <desc id="desc">熱能柔光風格的 ATG 高回報房間監控台預覽圖。</desc>
  <defs>
    <linearGradient id="bg" x1="0" y1="0" x2="1" y2="1">
      <stop offset="0" stop-color="#2a1718"/>
      <stop offset="0.52" stop-color="#3c2425"/>
      <stop offset="1" stop-color="#151113"/>
    </linearGradient>
    <linearGradient id="heat" x1="0" y1="0" x2="1" y2="0">
      <stop offset="0" stop-color="#ffd36d"/>
      <stop offset="0.28" stop-color="#ff7a48"/>
      <stop offset="0.55" stop-color="#ff6b8f"/>
      <stop offset="0.78" stop-color="#b78cff"/>
      <stop offset="1" stop-color="#77efd6"/>
    </linearGradient>
  </defs>
  <rect width="1200" height="630" fill="url(#bg)"/>
  <path d="M0 500 C 180 440 260 590 430 520 C 610 445 730 485 900 410 C 1040 348 1120 380 1200 336 L 1200 630 L 0 630 Z" fill="#ffffff" opacity="0.06"/>
  <rect x="80" y="88" width="1040" height="454" rx="34" fill="#2a1c1e" stroke="#ffd36d" stroke-opacity="0.25"/>
  <text x="120" y="180" fill="#ffd36d" font-family="Arial, Microsoft JhengHei, sans-serif" font-size="38" font-weight="700">ATG Thermal Dashboard</text>
  <text x="120" y="258" fill="#fff7eb" font-family="Arial, Microsoft JhengHei, sans-serif" font-size="78" font-weight="900">熱能柔光監控台</text>
  <text x="120" y="326" fill="#d6b9a6" font-family="Arial, Microsoft JhengHei, sans-serif" font-size="30" font-weight="700">高回報排名 / 爆破可能 / 高爆點數 / 免遊週期</text>
  <rect x="120" y="392" width="740" height="26" rx="13" fill="#ffffff" opacity="0.12"/>
  <rect x="120" y="392" width="560" height="26" rx="13" fill="url(#heat)"/>
  <g transform="translate(900 140)">
    <rect width="142" height="142" rx="30" fill="url(#heat)"/>
    <text x="71" y="86" text-anchor="middle" fill="#241416" font-family="Arial, sans-serif" font-size="44" font-weight="900">ATG</text>
  </g>
</svg>
